<?xml version="1.0" encoding="UTF-8"?>
<svg version="1.1" xmlns="http://www.w3.org/2000/svg" width="192" height="192">
<path d="M0 0 C2.18341574 0.00851187 4.36420341 -0.02037972 6.54736328 -0.05200195 C26.18907418 -0.14916493 47.20012874 6.5397496 62.31689453 19.44604492 C62.31689453 20.10604492 62.31689453 20.76604492 62.31689453 21.44604492 C62.87376953 21.69354492 63.43064453 21.94104492 64.00439453 22.19604492 C69.42644607 25.12688359 73.74113862 29.45718959 77.31689453 34.44604492 C77.31689453 35.10604492 77.31689453 35.76604492 77.31689453 36.44604492 C78.30689453 36.77604492 79.29689453 37.10604492 80.31689453 37.44604492 C80.31689453 38.10604492 80.31689453 38.76604492 80.31689453 39.44604492 C84.93689453 39.44604492 89.55689453 39.44604492 94.31689453 39.44604492 C97.99290673 46.79806931 96.41524903 57.9621563 96.19213867 66.08862305 C96.18045654 66.81243164 96.16877441 67.53624023 96.15673828 68.28198242 C96.1398999 68.91668457 96.12306152 69.55138672 96.10571289 70.20532227 C96.26111676 72.65359692 96.26111676 72.65359692 97.31030273 75.71191406 C98.3777455 79.67178239 98.6064072 83.29223681 98.58251953 87.35620117 C98.58443298 88.08673203 98.58634644 88.81726288 98.58831787 89.56993103 C98.58967015 91.10359037 98.58604109 92.63726153 98.57763672 94.17089844 C98.56690753 96.50571576 98.57757225 98.83976654 98.59033203 101.17456055 C98.58901057 102.6726091 98.58644845 104.17065719 98.58251953 105.66870117 C98.58656799 106.35948257 98.59061646 107.05026398 98.5947876 107.76197815 C98.55395526 112.02155378 97.86720083 115.48291087 96.31689453 119.44604492 C96.97689453 119.44604492 97.63689453 119.44604492 98.31689453 119.44604492 C98.31689453 130.66604492 98.31689453 141.88604492 98.31689453 153.44604492 C92.37689453 153.44604492 86.43689453 153.44604492 80.31689453 153.44604492 C79.98689453 154.43604492 79.65689453 155.42604492 79.31689453 156.44604492 C78.65689453 156.44604492 77.99689453 156.44604492 77.31689453 156.44604492 C77.06939453 157.00291992 76.82189453 157.55979492 76.56689453 158.13354492 C73.63605586 163.55559646 69.30574986 167.87028901 64.31689453 171.44604492 C63.65689453 171.44604492 62.99689453 171.44604492 62.31689453 171.44604492 C61.98689453 172.43604492 61.65689453 173.42604492 61.31689453 174.44604492 C45.66777825 187.71619816 24.65239978 193.01052994 4.63378906 192.89208984 C2.45037333 192.88357798 0.26958565 192.91246956 -1.91357422 192.9440918 C-21.55528512 193.04125478 -42.56633968 186.35234024 -57.68310547 173.44604492 C-57.68310547 172.78604492 -57.68310547 172.12604492 -57.68310547 171.44604492 C-58.23998047 171.19854492 -58.79685547 170.95104492 -59.37060547 170.69604492 C-64.79265701 167.76520625 -69.10734955 163.43490025 -72.68310547 158.44604492 C-72.68310547 157.78604492 -72.68310547 157.12604492 -72.68310547 156.44604492 C-73.67310547 156.11604492 -74.66310547 155.78604492 -75.68310547 155.44604492 C-75.68310547 154.78604492 -75.68310547 154.12604492 -75.68310547 153.44604492 C-81.62310547 153.44604492 -87.56310547 153.44604492 -93.68310547 153.44604492 C-93.68310547 150.47604492 -93.68310547 147.50604492 -93.68310547 144.44604492 C-90.71310547 143.45604492 -87.74310547 142.46604492 -84.68310547 141.44604492 C-84.99763672 140.68163086 -85.31216797 139.9172168 -85.63623047 139.12963867 C-86.06419922 138.05842773 -86.49216797 136.9872168 -86.93310547 135.88354492 C-87.55958984 134.33473633 -87.55958984 134.33473633 -88.19873047 132.75463867 C-92.32797464 121.23205319 -94.34781258 110.80802726 -94.20458984 98.61206055 C-94.1831071 96.4462095 -94.20454706 94.28367286 -94.22998047 92.11791992 C-94.25450026 79.61211629 -91.86852301 68.57940438 -86.36669922 57.25463867 C-85.41446331 54.73529453 -85.72405492 52.92359218 -86.68310547 50.44604492 C-88.99310547 49.78604492 -91.30310547 49.12604492 -93.68310547 48.44604492 C-93.68310547 45.14604492 -93.68310547 41.84604492 -93.68310547 38.44604492 C-92.41853516 38.38545898 -91.15396484 38.32487305 -89.85107422 38.26245117 C-88.19090676 38.17803588 -86.5307511 38.09338837 -84.87060547 38.00854492 C-84.03722656 37.96922852 -83.20384766 37.92991211 -82.34521484 37.8894043 C-81.54277344 37.84750977 -80.74033203 37.80561523 -79.91357422 37.76245117 C-79.17518311 37.72579346 -78.43679199 37.68913574 -77.67602539 37.65136719 C-75.47561046 37.49762351 -75.47561046 37.49762351 -72.68310547 36.44604492 C-71.97915935 35.13201217 -71.31964889 33.79401922 -70.68310547 32.44604492 C-67.63776902 28.16001584 -63.95814902 24.51017712 -59.68310547 21.44604492 C-59.02310547 21.44604492 -58.36310547 21.44604492 -57.68310547 21.44604492 C-57.18810547 19.96104492 -57.18810547 19.96104492 -56.68310547 18.44604492 C-41.03398919 5.17589169 -20.01861072 -0.11844009 0 0 Z " fill="#A7A7A7" transform="translate(93.68310546875,-0.446044921875)"/>
<path d="M0 0 C2.18341574 0.00851187 4.36420341 -0.02037972 6.54736328 -0.05200195 C26.18907418 -0.14916493 47.20012874 6.5397496 62.31689453 19.44604492 C62.31689453 20.10604492 62.31689453 20.76604492 62.31689453 21.44604492 C62.87376953 21.69354492 63.43064453 21.94104492 64.00439453 22.19604492 C69.42644607 25.12688359 73.74113862 29.45718959 77.31689453 34.44604492 C77.31689453 35.10604492 77.31689453 35.76604492 77.31689453 36.44604492 C78.30689453 36.77604492 79.29689453 37.10604492 80.31689453 37.44604492 C80.31689453 38.10604492 80.31689453 38.76604492 80.31689453 39.44604492 C58.53689453 39.77604492 36.75689453 40.10604492 14.31689453 40.44604492 C14.31689453 42.42604492 14.31689453 44.40604492 14.31689453 46.44604492 C15.14833984 46.62780273 15.97978516 46.80956055 16.83642578 46.99682617 C17.92310547 47.24819336 19.00978516 47.49956055 20.12939453 47.75854492 C21.20833984 48.00217773 22.28728516 48.24581055 23.39892578 48.49682617 C27.5385773 49.8434598 27.5385773 49.8434598 29.31689453 52.44604492 C29.61311344 55.3086164 29.72661612 57.95365656 29.70507812 60.81713867 C29.71033508 61.67107208 29.71559204 62.52500549 29.7210083 63.40481567 C29.73422643 66.2312441 29.72546385 69.05711064 29.71533203 71.88354492 C29.71735225 73.84505319 29.72026324 75.80656072 29.72402954 77.76806641 C29.72845535 81.88052516 29.72201355 85.99278854 29.70800781 90.10522461 C29.69091583 95.3815618 29.70075563 100.65744121 29.7187252 105.9337616 C29.72955608 109.98461366 29.7261199 114.03535685 29.71834183 118.08621216 C29.71633789 120.03191176 29.71880585 121.97762119 29.72578049 123.92330933 C29.7333835 126.64079033 29.72180705 129.35752582 29.70507812 132.07495117 C29.71115082 132.8823172 29.71722351 133.68968323 29.72348022 134.52151489 C29.66133807 139.95917563 29.66133807 139.95917563 27.91439819 142.4284668 C22.08615097 146.1409446 12.07070639 146.15723922 5.31689453 145.44604492 C1.61602521 143.84670169 -0.32088349 141.66097141 -2.68310547 138.44604492 C-3.21162109 137.78862305 -3.74013672 137.13120117 -4.28466797 136.45385742 C-9.15053114 129.97372684 -13.13238983 122.81452016 -17.24462891 115.84179688 C-20.19211384 110.85460939 -23.2672419 106.01496578 -26.5793457 101.26074219 C-27.68310547 99.44604492 -27.68310547 99.44604492 -27.68310547 97.44604492 C-25.85498047 96.11401367 -25.85498047 96.11401367 -23.43310547 94.63354492 C-17.62551703 90.87408721 -14.38829801 86.83474621 -11.68310547 80.44604492 C-11.24378828 77.64311705 -11.20552444 74.90427285 -11.24560547 72.07104492 C-11.25462891 71.3137207 -11.26365234 70.55639648 -11.27294922 69.77612305 C-11.44829292 64.14077123 -12.13274052 59.96924999 -15.68310547 55.44604492 C-16.52228516 54.31102539 -16.52228516 54.31102539 -17.37841797 53.15307617 C-22.0279073 47.38356816 -26.86507984 44.21552026 -33.68310547 41.44604492 C-34.38048828 41.10452393 -35.07787109 40.76300293 -35.79638672 40.41113281 C-39.61051141 39.13599454 -43.28545243 39.0906535 -47.26513672 39.03198242 C-48.07931564 39.01261627 -48.89349457 38.99325012 -49.73234558 38.97329712 C-52.31999398 38.9137574 -54.9076875 38.86721909 -57.49560547 38.82104492 C-59.25538995 38.78284152 -61.01515621 38.74378842 -62.77490234 38.70385742 C-67.07748781 38.6080771 -71.38016077 38.52395207 -75.68310547 38.44604492 C-75.35310547 37.78604492 -75.02310547 37.12604492 -74.68310547 36.44604492 C-74.02310547 36.44604492 -73.36310547 36.44604492 -72.68310547 36.44604492 C-72.43560547 35.88916992 -72.18810547 35.33229492 -71.93310547 34.75854492 C-69.0022668 29.33649338 -64.6719608 25.02180084 -59.68310547 21.44604492 C-59.02310547 21.44604492 -58.36310547 21.44604492 -57.68310547 21.44604492 C-57.35310547 20.45604492 -57.02310547 19.46604492 -56.68310547 18.44604492 C-41.03398919 5.17589169 -20.01861072 -0.11844009 0 0 Z " fill="#000000" transform="translate(93.68310546875,-0.446044921875)"/>
<path d="M0 0 C2.58705937 -0.10815403 5.16958728 -0.18735684 7.7578125 -0.25 C8.85379761 -0.30027344 8.85379761 -0.30027344 9.97192383 -0.3515625 C13.51179175 -0.41588719 15.52317007 -0.37256193 18.35913086 1.84326172 C20.19177027 4.45069231 21.5688675 7.15146289 23 10 C24.5980865 12.65530374 26.27278596 15.26110417 27.9375 17.875 C28.80111835 19.25678936 29.66311048 20.6395965 30.5234375 22.0234375 C31.15137207 23.03035645 31.15137207 23.03035645 31.79199219 24.05761719 C32.55885112 25.29066684 33.32286563 26.52549366 34.08300781 27.76269531 C39.96990014 37.3070241 46.35743266 45.49982239 57.23046875 49.38671875 C62.43140541 50.53840712 67.71107828 50.48661271 73 50 C73.33 49.67 73.66 49.34 74 49 C76.14743549 48.90574405 78.29801026 48.88257352 80.44750977 48.88647461 C81.12065216 48.88632858 81.79379456 48.88618256 82.48733521 48.8860321 C84.72205784 48.88673122 86.9566981 48.89452348 89.19140625 48.90234375 C90.73697362 48.90420794 92.28254157 48.90563184 93.82810974 48.90663147 C97.90357077 48.9104566 101.97899637 48.92028683 106.05444336 48.93133545 C110.21011882 48.94154968 114.36579999 48.94612911 118.52148438 48.95117188 C126.68100587 48.96190911 134.84049853 48.97898546 143 49 C142.67 50.32 142.34 51.64 142 53 C141.34 53 140.68 53 140 53 C139.7525 53.556875 139.505 54.11375 139.25 54.6875 C136.31916133 60.10955154 131.98885533 64.42424409 127 68 C126.34 68 125.68 68 125 68 C124.67 68.99 124.34 69.98 124 71 C108.35088372 84.27015323 87.33550525 89.56448502 67.31689453 89.44604492 C65.13347879 89.43753305 62.95269112 89.46642464 60.76953125 89.49804688 C41.12782035 89.59520986 20.11676579 82.90629532 5 70 C5 69.34 5 68.68 5 68 C4.1646875 67.62875 4.1646875 67.62875 3.3125 67.25 C-2.10955154 64.31916133 -6.42424409 59.98885533 -10 55 C-10 54.34 -10 53.68 -10 53 C-10.99 52.67 -11.98 52.34 -13 52 C-13 51.01 -13 50.02 -13 49 C1.85 48.505 1.85 48.505 17 48 C17.33 46.02 17.66 44.04 18 42 C16.30230469 41.70996094 16.30230469 41.70996094 14.5703125 41.4140625 C13.08846798 41.15145714 11.60670108 40.88841352 10.125 40.625 C9.00544922 40.43550781 9.00544922 40.43550781 7.86328125 40.2421875 C2.2265625 39.2265625 2.2265625 39.2265625 0 37 C-0.17525055 34.20315203 -0.23143189 31.5067192 -0.1953125 28.7109375 C-0.1924826 27.89251373 -0.18965271 27.07408997 -0.18673706 26.23086548 C-0.17552532 23.61209607 -0.15041929 20.99366636 -0.125 18.375 C-0.11497147 16.60156743 -0.1058454 14.82812951 -0.09765625 13.0546875 C-0.07558278 8.70299374 -0.04104644 4.3515545 0 0 Z " fill="#010101" transform="translate(31,103)"/>
<path d="M0 0 C5.176875 -0.103125 10.35375 -0.20625 15.6875 -0.3125 C17.31260498 -0.35802002 18.93770996 -0.40354004 20.61206055 -0.45043945 C21.89894775 -0.46292725 23.18583496 -0.47541504 24.51171875 -0.48828125 C25.82615967 -0.51446533 27.14060059 -0.54064941 28.49487305 -0.56762695 C32.87740072 0.14208795 34.29291431 1.55559548 37 5 C37.93359375 8.04296875 37.93359375 8.04296875 38.4375 11.1875 C39.03991015 14.33331471 39.03991015 14.33331471 40 17 C42.96260526 18.23757877 42.96260526 18.23757877 46 19 C49.79511355 27.11059728 49.5936675 35.53926548 49.5625 44.3125 C49.56301361 45.06478882 49.56352722 45.81707764 49.5640564 46.59216309 C49.52122438 61.29117126 48.60731018 76.82719509 38 88 C34.95471781 89.52264109 31.77854754 89.16285537 28.4375 89.16796875 C27.69040771 89.17129715 26.94331543 89.17462555 26.17358398 89.17805481 C24.59326799 89.18311966 23.01294129 89.18546327 21.43261719 89.18530273 C19.00958757 89.18749134 16.58701164 89.20565701 14.1640625 89.22460938 C12.6302099 89.22754292 11.09635512 89.22952798 9.5625 89.23046875 C8.83538818 89.23765427 8.10827637 89.24483978 7.35913086 89.25224304 C2.22882803 89.22882803 2.22882803 89.22882803 0 87 C-0.17532289 84.13111419 -0.23137614 81.36007355 -0.1953125 78.4921875 C-0.1924826 77.65156769 -0.18965271 76.81094788 -0.18673706 75.94485474 C-0.1755243 73.25475954 -0.15041803 70.5649949 -0.125 67.875 C-0.1149716 66.05339022 -0.10584551 64.23177523 -0.09765625 62.41015625 C-0.07558142 57.93997642 -0.04104434 53.47004429 0 49 C4.56216465 48.85467965 9.12373362 48.76591523 13.6875 48.6875 C15.62786133 48.6246582 15.62786133 48.6246582 17.60742188 48.56054688 C19.47817383 48.53637695 19.47817383 48.53637695 21.38671875 48.51171875 C23.10701294 48.47244263 23.10701294 48.47244263 24.86206055 48.43237305 C28.95525651 49.1727979 30.40901489 50.82717131 33 54 C33.87293478 56.76348965 33.85085822 59.06687825 34 62 C35.98 62 37.96 62 40 62 C40 49.79 40 37.58 40 25 C38.02 25 36.04 25 34 25 C33.90203125 25.61488281 33.8040625 26.22976562 33.703125 26.86328125 C33.55359375 27.67152344 33.4040625 28.47976562 33.25 29.3125 C33.11078125 30.11300781 32.9715625 30.91351563 32.828125 31.73828125 C31.74947072 34.68422855 30.70140821 35.42081858 28 37 C24.97558594 37.34057617 24.97558594 37.34057617 21.484375 37.29296875 C19.79393066 37.28172974 19.79393066 37.28172974 18.06933594 37.27026367 C16.64395508 37.24295166 15.21857422 37.21563965 13.75 37.1875 C9.2125 37.125625 4.675 37.06375 0 37 C0 24.79 0 12.58 0 0 Z " fill="#020202" transform="translate(143,51)"/>
<path d="M0 0 C17.37762238 0 17.37762238 0 23 4 C23.9075 4.53625 24.815 5.0725 25.75 5.625 C30.47383602 10.61127135 32.22804901 16.78390446 32.4375 23.5625 C32.17441949 29.97622148 30.5761333 35.27207698 27.375 40.8125 C19.09775067 48.43628227 11.77025402 47 0 47 C0 31.49 0 15.98 0 0 Z " fill="#010101" transform="translate(31,47)"/>
<path d="M0 0 C0.66 0 1.32 0 2 0 C2 28.71 2 57.42 2 87 C1.34 87 0.68 87 0 87 C-8.31775772 75.42746752 -9.52758661 60.09897881 -9.44604492 46.31689453 C-9.43753305 44.13347879 -9.46642464 41.95269112 -9.49804688 39.76953125 C-9.56983401 25.40189325 -5.95641464 13.10899452 0 0 Z " fill="#040404" transform="translate(9,52)"/>
</svg>
